HIERARCHY
ROOT joint_0
{
	OFFSET 0.000000 0.000000 0.000000
	CHANNELS 6 Xposition Yposition Zposition Zrotation Yrotation Xrotation 
	JOINT joint_1
	{
		OFFSET 8.185791 -2.713684 100.414917
		CHANNELS 3 Zrotation Yrotation Xrotation
		JOINT joint_2
		{
			OFFSET -4.376465 -1.111145 91.934082
			CHANNELS 3 Zrotation Yrotation Xrotation
			JOINT joint_3
			{
				OFFSET -6.985840 -1.054016 91.669922
				CHANNELS 3 Zrotation Yrotation Xrotation
				JOINT joint_4
				{
					OFFSET 0.150391 -4.451904 123.526001
					CHANNELS 3 Zrotation Yrotation Xrotation
					JOINT joint_5
					{
						OFFSET 19.754150 -8.123901 80.916992
						CHANNELS 3 Zrotation Yrotation Xrotation
						End Site
						{
							OFFSET 0.000000 0.000000 0.000000
						}
					}
				}
				JOINT joint_6
				{
					OFFSET -6.477539 -28.517334 68.237061
					CHANNELS 3 Zrotation Yrotation Xrotation
					JOINT joint_7
					{
						OFFSET -20.564453 -115.426208 -21.139038
						CHANNELS 3 Zrotation Yrotation Xrotation
						JOINT joint_8
						{
							OFFSET 18.981934 -19.826172 -267.898926
							CHANNELS 3 Zrotation Yrotation Xrotation
							JOINT joint_9
							{
								OFFSET 11.562744 -19.325867 -235.478027
								CHANNELS 3 Zrotation Yrotation Xrotation
								End Site
								{
									OFFSET 0.000000 0.000000 0.000000
								}
							}
						}
					}
				}
				JOINT joint_10
				{
					OFFSET 7.033936 23.504700 70.088989
					CHANNELS 3 Zrotation Yrotation Xrotation
					JOINT joint_11
					{
						OFFSET 36.629639 112.486816 -14.036987
						CHANNELS 3 Zrotation Yrotation Xrotation
						JOINT joint_12
						{
							OFFSET 41.355225 -7.048523 -266.019897
							CHANNELS 3 Zrotation Yrotation Xrotation
							JOINT joint_13
							{
								OFFSET 5.858887 29.785156 -234.603027
								CHANNELS 3 Zrotation Yrotation Xrotation
								End Site
								{
									OFFSET 0.000000 0.000000 0.000000
								}
							}
						}
					}
				}
			}
		}
	}
	JOINT joint_14
	{
		OFFSET -8.917725 -79.985535 -99.035034
		CHANNELS 3 Zrotation Yrotation Xrotation
		JOINT joint_15
		{
			OFFSET -32.739502 -31.478882 -502.570984
			CHANNELS 3 Zrotation Yrotation Xrotation
			JOINT joint_16
			{
				OFFSET 7.393066 -29.352966 -399.008011
				CHANNELS 3 Zrotation Yrotation Xrotation
				JOINT joint_17
				{
					OFFSET 178.013916 -26.060303 -71.875002
					CHANNELS 3 Zrotation Yrotation Xrotation
					End Site
					{
						OFFSET 0.000000 0.000000 0.000000
					}
				}
			}
		}
	}
	JOINT joint_18
	{
		OFFSET 1.900879 81.159851 -98.481018
		CHANNELS 3 Zrotation Yrotation Xrotation
		JOINT joint_19
		{
			OFFSET -15.120850 31.602051 -503.400024
			CHANNELS 3 Zrotation Yrotation Xrotation
			JOINT joint_20
			{
				OFFSET -16.653076 23.887695 -399.091988
				CHANNELS 3 Zrotation Yrotation Xrotation
				JOINT joint_21
				{
					OFFSET 179.618164 -1.217651 -72.592001
					CHANNELS 3 Zrotation Yrotation Xrotation
					End Site
					{
						OFFSET 0.000000 0.000000 0.000000
					}
				}
			}
		}
	}
}
MOTION
Frames: 13
Frame Time: 0.016667
-3225.910400 840.518188 1094.218994 2.854987 0.565119 0.799852 1.427699 -0.879788 -2.487465 1.592486 0.048019 0.580842 1.506458 -0.136562 -0.517965 0.018976 1.011061 0.314024 0.000000 0.000000 0.000000 0.163516 0.940320 -0.534764 0.271398 0.180642 3.627761 -0.017342 -0.734196 -1.555030 0.000000 0.000000 0.000000 3.586545 2.715685 -0.723785 -0.476065 2.117282 -0.390729 -0.712247 -4.000356 -3.304535 0.000000 0.000000 0.000000 1.308633 1.792460 -4.019620 0.855929 0.886421 4.099139 0.980402 -1.343411 0.197567 0.000000 0.000000 0.000000 0.950086 1.426936 -1.562873 1.001142 2.037634 -1.837257 0.601914 -3.319729 0.220320 0.000000 0.000000 0.000000 
-3225.495605 841.043396 1094.103027 2.727417 0.635829 0.788982 1.380673 -0.946248 -2.467132 1.544586 0.051139 0.568379 1.460166 -0.139052 -0.507985 0.021225 0.961961 0.286009 0.000000 0.000000 0.000000 0.187953 0.959146 -0.536232 0.274326 0.192918 3.684467 -0.015791 -0.744615 -1.542183 0.000000 0.000000 0.000000 3.803418 2.798532 -0.643949 -0.491047 2.224919 -0.472126 -0.702246 -3.956271 -3.263775 0.000000 0.000000 0.000000 1.354827 1.686727 -4.088064 0.879828 0.962492 4.195455 1.011469 -1.370999 0.205973 0.000000 0.000000 0.000000 0.998957 1.382015 -1.573042 1.053948 2.046691 -1.872130 0.652564 -3.310020 0.240774 0.000000 0.000000 0.000000 
-3224.965332 841.578125 1093.979004 2.579216 0.729430 0.777033 1.323207 -1.020117 -2.433515 1.485455 0.056983 0.552278 1.403132 -0.142814 -0.494532 0.024596 0.908328 0.251569 0.000000 0.000000 0.000000 0.219728 0.976728 -0.548922 0.277745 0.202644 3.744172 -0.013555 -0.761749 -1.526982 0.000000 0.000000 0.000000 4.082383 2.883933 -0.550233 -0.511335 2.339473 -0.577616 -0.692256 -3.913161 -3.218587 0.000000 0.000000 0.000000 1.408014 1.558260 -4.158831 0.908546 1.042659 4.295574 1.048314 -1.408226 0.215284 0.000000 0.000000 0.000000 1.055333 1.323439 -1.582475 1.114895 2.051337 -1.909275 0.710846 -3.309006 0.264240 0.000000 0.000000 0.000000 
-3224.055664 842.024780 1093.843018 2.373762 0.888358 0.767395 1.237531 -1.109706 -2.394628 1.397815 0.071760 0.531965 1.317722 -0.156497 -0.480496 0.029135 0.814019 0.197124 0.000000 0.000000 0.000000 0.237281 0.992584 -0.584030 0.284134 0.198949 3.828908 -0.009022 -0.804798 -1.508815 0.000000 0.000000 0.000000 4.355214 2.999778 -0.399485 -0.533824 2.507534 -0.693279 -0.678052 -3.856576 -3.166197 0.000000 0.000000 0.000000 1.484374 1.370136 -4.231183 0.956084 1.131388 4.392539 1.106145 -1.465842 0.230035 0.000000 0.000000 0.000000 1.129076 1.225151 -1.589212 1.195350 2.047124 -1.952664 0.788854 -3.301739 0.295677 0.000000 0.000000 0.000000 
-3222.669922 842.298035 1093.670044 2.095281 1.132227 0.758401 1.111296 -1.216165 -2.353651 1.269451 0.103234 0.505966 1.191820 -0.187561 -0.463645 0.034556 0.662846 0.117402 0.000000 0.000000 0.000000 0.230904 1.000375 -0.649506 0.295388 0.169455 3.952745 -0.001802 -0.876548 -1.484137 0.000000 0.000000 0.000000 4.622574 3.163419 -0.171352 -0.557263 2.750547 -0.810391 -0.658431 -3.779440 -3.111614 0.000000 0.000000 0.000000 1.592848 1.106709 -4.296939 1.031645 1.228229 4.475511 1.195312 -1.558608 0.252223 0.000000 0.000000 0.000000 1.225488 1.077893 -1.583094 1.301248 2.023854 -2.014882 0.893022 -3.278969 0.337731 0.000000 0.000000 0.000000 
-3220.912842 842.436829 1093.458984 1.759075 1.444848 0.747454 0.952458 -1.335387 -2.307339 1.108158 0.147314 0.475068 1.033338 -0.232453 -0.442957 0.040149 0.467927 0.019680 0.000000 0.000000 0.000000 0.203918 1.001230 -0.739023 0.310266 0.119671 4.102650 0.007853 -0.971226 -1.448684 0.000000 0.000000 0.000000 4.906658 3.367051 0.110859 -0.583322 3.050443 -0.930278 -0.635771 -3.688164 -3.060338 0.000000 0.000000 0.000000 1.726973 0.781852 -4.356283 1.129675 1.331620 4.547345 1.309776 -1.681894 0.280087 0.000000 0.000000 0.000000 1.340554 0.891339 -1.564786 1.428042 1.982842 -2.094252 1.018570 -3.246106 0.388431 0.000000 0.000000 0.000000 
-3218.407715 842.529968 1093.328979 1.314956 1.863798 0.748148 0.764756 -1.490962 -2.273549 0.919306 0.195739 0.448779 0.846356 -0.281664 -0.428841 0.044773 0.190950 -0.106721 0.000000 0.000000 0.000000 0.129079 1.016888 -0.840197 0.326012 0.073289 4.254458 0.023259 -1.125513 -1.396809 0.000000 0.000000 0.000000 5.011732 3.626848 0.441229 -0.606000 3.438796 -1.030698 -0.603733 -3.553856 -3.000286 0.000000 0.000000 0.000000 1.897381 0.356539 -4.445672 1.253312 1.455217 4.638050 1.450222 -1.792023 0.320251 0.000000 0.000000 0.000000 1.483131 0.634702 -1.574906 1.585999 1.954253 -2.148216 1.176072 -3.193070 0.452045 0.000000 0.000000 0.000000 
-3214.896729 842.596924 1093.373047 0.724483 2.447686 0.777263 0.512541 -1.695540 -2.274020 0.668962 0.239931 0.439537 0.595747 -0.319403 -0.428654 0.048151 -0.216324 -0.281440 0.000000 0.000000 0.000000 0.027753 1.023398 -0.932119 0.340598 0.022180 4.364778 0.046905 -1.357827 -1.310709 0.000000 0.000000 0.000000 4.714152 3.997659 0.815678 -0.607121 3.972331 -1.033340 -0.562943 -3.369920 -3.013608 0.000000 0.000000 0.000000 2.111426 -0.223168 -4.598810 1.404176 1.585020 4.768764 1.612346 -1.826577 0.380066 0.000000 0.000000 0.000000 1.659258 0.260198 -1.643461 1.782669 1.933445 -2.160598 1.376757 -3.068478 0.533362 0.000000 0.000000 0.000000 
-3210.529053 842.601196 1093.546021 0.007300 3.180918 0.824443 0.198032 -1.935232 -2.307357 0.359095 0.284028 0.442724 0.284321 -0.356444 -0.433451 0.043853 -0.742450 -0.475305 0.000000 0.000000 0.000000 -0.110048 1.010199 -1.004185 0.353151 -0.039936 4.413915 0.079183 -1.651005 -1.166126 0.000000 0.000000 0.000000 4.066661 4.490547 1.209884 -0.589826 4.647287 -0.945229 -0.519017 -3.149598 -3.145920 0.000000 0.000000 0.000000 2.364454 -0.941263 -4.800908 1.581146 1.714973 4.927825 1.795347 -1.795393 0.457720 0.000000 0.000000 0.000000 1.865149 -0.218997 -1.754458 2.013937 1.907933 -2.147519 1.616686 -2.872434 0.630749 0.000000 0.000000 0.000000 
-3205.307373 842.731812 1093.784058 -0.816258 3.918937 0.841667 -0.008732 -2.235693 -2.333292 0.157546 0.341672 0.431662 0.082449 -0.421300 -0.430913 0.018514 -1.314222 -0.601998 0.000000 0.000000 0.000000 -0.468371 1.136970 -1.093594 0.358953 0.000051 4.444020 0.123696 -2.038058 -0.964176 0.000000 0.000000 0.000000 3.485684 4.916716 1.584625 -0.618410 5.301765 -1.065341 -0.455988 -2.797728 -3.054985 0.000000 0.000000 0.000000 2.659875 -1.681414 -5.011075 1.790508 1.954108 5.111295 2.023816 -1.831879 0.543457 0.000000 0.000000 0.000000 2.100816 -0.686162 -1.894329 2.278198 1.987061 -2.056128 1.879306 -2.795150 0.736155 0.000000 0.000000 0.000000 
-3199.082031 843.257263 1094.052979 -1.801948 4.584210 0.781731 0.035483 -2.669076 -2.314057 0.206397 0.429411 0.389633 0.132824 -0.540913 -0.426527 -0.036353 -1.917906 -0.620721 0.000000 0.000000 0.000000 -1.287435 1.528662 -1.214720 0.353714 0.223158 4.446352 0.184840 -2.559872 -0.710584 0.000000 0.000000 0.000000 3.291688 5.066996 1.949854 -0.748562 5.792387 -1.710555 -0.335080 -2.074094 -2.268581 0.000000 0.000000 0.000000 3.026501 -2.391019 -5.210684 2.058886 2.376013 5.333177 2.336290 -2.020666 0.640160 0.000000 0.000000 0.000000 2.393461 -1.050479 -2.053981 2.598028 2.205961 -1.853893 2.178591 -2.969694 0.854103 0.000000 0.000000 0.000000 
-3191.853027 844.107178 1094.375977 -2.960710 5.230220 0.657616 0.265838 -3.223772 -2.263963 0.442265 0.537328 0.332260 0.370888 -0.702142 -0.426168 -0.112596 -2.582409 -0.578565 0.000000 0.000000 0.000000 -2.501998 2.116816 -1.349886 0.341175 0.585954 4.365132 0.264354 -3.196470 -0.388545 0.000000 0.000000 0.000000 3.322749 5.010767 2.313533 -0.950958 6.171702 -2.748835 -0.159592 -1.006982 -0.906497 0.000000 0.000000 0.000000 3.464620 -3.116798 -5.414608 2.385423 2.939506 5.592117 2.724283 -2.299996 0.753210 0.000000 0.000000 0.000000 2.744358 -1.358508 -2.239036 2.975450 2.522900 -1.564671 2.523062 -3.312032 0.988329 0.000000 0.000000 0.000000 
-3184.274658 844.636841 1094.728027 -3.995731 5.782506 0.546763 0.544882 -3.672488 -2.208653 0.727674 0.621719 0.312674 0.654870 -0.840364 -0.445439 -0.168771 -3.101762 -0.563521 0.000000 0.000000 0.000000 -3.558056 2.807514 -1.553444 0.338166 1.057862 4.346050 0.350833 -3.856392 -0.066805 0.000000 0.000000 0.000000 3.350098 5.023841 2.675860 -1.154264 6.556258 -3.583692 -0.044630 -0.324404 0.133716 0.000000 0.000000 0.000000 3.861200 -3.765274 -5.583675 2.671637 3.645014 5.803123 3.091181 -2.683067 0.841996 0.000000 0.000000 0.000000 3.036892 -1.695135 -2.447342 3.311078 3.125580 -1.193366 2.808077 -3.765109 1.097164 0.000000 0.000000 0.000000 
